<svg width="42" height="40" viewBox="0 0 42 40" fill="none" xmlns="http://www.w3.org/2000/svg">
<path d="M14.2305 31.9422C12.8822 31.9422 11.6534 31.9422 10.331 31.9422C10.331 33.4215 10.331 34.8669 10.331 36.3139C10.331 36.5564 10.3875 36.8167 10.3164 37.0366C10.2178 37.3373 10.0836 37.7237 9.84755 37.8498C9.68264 37.9371 9.24289 37.714 9.05697 37.5103C8.46039 36.8555 7.92363 36.1457 7.28179 35.3552C7.09425 35.651 6.93904 35.8806 6.8 36.1199C6.15007 37.237 5.49529 38.3494 4.86476 39.4778C4.54465 40.0518 4.15178 40.1391 3.60371 39.806C2.91336 39.3873 2.21978 38.9734 1.5068 38.5935C0.881122 38.2604 0.83747 37.8482 1.18022 37.271C1.96272 35.955 2.71612 34.6228 3.53904 33.1968C2.57708 33.0351 1.70081 32.9268 0.847171 32.7231C0.536757 32.6487 0.281312 32.3448 0 32.1443C0.190775 31.8792 0.328198 31.5332 0.583642 31.365C1.41303 30.8186 2.61103 30.526 3.04755 29.7758C3.45335 29.0774 3.03785 27.9182 3.03462 26.9627C3.02168 22.9758 3.02815 18.9889 3.02977 15.0037C3.03138 12.3926 4.33932 11.0637 6.93742 11.0734C7.43376 11.075 7.73771 10.8664 8.12411 10.5819C8.97613 9.95458 9.87989 9.30627 10.8661 8.97322C12.7981 8.32006 14.8109 7.90456 16.7688 7.32415C17.3039 7.16571 17.8504 6.84883 18.2514 6.46081C20.1672 4.60641 22.0329 2.70028 23.9213 0.818396C24.686 0.0552952 25.1354 0.1717 25.4216 1.21288C25.8921 2.92501 26.3674 4.63551 26.7991 6.35734C26.9187 6.83589 27.1272 7.01535 27.6187 7.01859C28.4788 7.02344 29.3389 7.12691 30.2007 7.13499C30.8263 7.13984 31.1384 7.40984 31.2386 8.0145C31.3 8.38473 31.4342 8.74041 31.5248 9.10579C31.7899 10.1825 31.9581 11.1785 33.3291 11.6328C34.4802 12.0143 34.9814 13.2236 34.9862 14.4685C35.0056 19.1554 35.0331 23.8424 34.9733 28.5293C34.9474 30.5615 33.4471 31.9002 31.3938 31.9083C27.9728 31.9212 24.5518 31.897 21.1308 31.9341C20.7298 31.939 20.2448 32.1395 19.9457 32.4095C18.489 33.7287 17.0954 35.1175 15.6436 36.4432C15.3865 36.6776 14.9613 36.731 14.6153 36.8684C14.486 36.5127 14.2596 36.1619 14.2467 35.8014C14.2014 34.5371 14.2305 33.2744 14.2305 31.9422ZM4.40238 29.1291C5.9981 28.2108 7.46125 27.3652 8.92763 26.5278C9.94941 25.9441 10.3261 26.1705 10.3293 27.3669C10.3326 28.4323 10.3293 29.4977 10.3293 30.6133C11.6825 30.6133 12.9177 30.6133 14.1529 30.6133C15.5142 30.6133 15.5255 30.6246 15.5272 31.9535C15.5272 32.8266 15.5272 33.698 15.5272 34.7844C16.8787 33.4975 18.0784 32.3868 19.2376 31.2341C19.6903 30.7846 20.1575 30.5939 20.8042 30.5987C24.306 30.6278 27.8079 30.6197 31.3097 30.6084C32.7923 30.6036 33.6799 29.7936 33.688 28.3482C33.7138 23.7696 33.7074 19.1894 33.6912 14.6108C33.688 13.5001 33.1124 12.7192 32.1844 12.4718C31.9758 12.4169 31.6864 12.4233 31.5118 12.53C30.6404 13.0571 29.7949 13.6262 28.9154 14.1969C29.4311 16.1338 29.9371 18.0253 30.4383 19.9202C30.7261 21.0098 30.4044 21.33 29.3034 21.0389C28.2363 20.7576 27.1757 20.4585 26.1103 20.174C24.6698 19.7892 23.2277 19.4109 21.6708 18.9986C22.1994 20.9775 22.699 22.8157 23.1776 24.6588C23.5252 25.9991 23.0369 27.2779 21.889 27.8341C19.4882 28.9949 17.4834 28.3498 16.9289 25.7469C16.5328 23.8876 15.9556 22.0688 15.4334 20.1384C12.8789 21.0713 10.47 21.0826 8.4038 19.2039C6.34893 17.335 5.99001 14.9972 6.8194 12.4201C5.31583 12.2778 4.33609 13.1299 4.33286 14.6011C4.31992 19.1797 4.32801 23.7599 4.33124 28.3385C4.32962 28.5487 4.36681 28.7556 4.40238 29.1291ZM29.0156 19.6081C27.4425 13.741 25.9179 8.04683 24.3529 2.20879C22.4743 4.09391 20.7023 5.85777 18.9579 7.6475C18.8156 7.79462 18.7719 8.14545 18.8301 8.3621C19.5852 11.2512 20.3596 14.1355 21.1566 17.0116C21.2229 17.2509 21.4509 17.5662 21.6643 17.626C24.0441 18.2953 26.4353 18.921 29.0156 19.6081ZM17.5044 8.48658C15.2232 9.10095 13.0277 9.61992 10.8774 10.2925C8.5962 11.0055 7.28179 13.45 7.80076 15.7554C8.31812 18.0528 10.4975 19.7989 12.7965 19.4093C15.1893 19.0035 17.5254 18.2565 19.957 17.6422C19.1276 14.5461 18.3306 11.5681 17.5044 8.48658ZM8.99553 27.9861C6.85982 29.2196 4.8098 30.4031 2.569 31.6965C3.22216 31.8016 3.63766 31.8727 4.05478 31.9341C5.33685 32.1217 5.48236 32.4289 4.82596 33.5654C4.04993 34.9106 3.27389 36.2541 2.46876 37.6477C3.00552 37.9452 3.45982 38.1958 3.94484 38.4641C4.82758 36.9347 5.6505 35.4877 6.49767 34.0537C6.90024 33.3714 7.29634 33.352 7.81854 33.9502C8.19039 34.377 8.54608 34.8152 9.03595 35.3988C9.03595 32.9106 9.03595 30.6521 9.03433 28.3935C9.03272 28.2965 9.01493 28.2011 8.99553 27.9861ZM16.7025 19.8329C17.291 22.0106 17.8262 24.1156 18.4405 26.1963C18.6927 27.0516 19.43 27.2472 20.6005 26.9287C21.674 26.6361 22.1719 26.0799 21.9553 25.1875C21.4509 23.1051 20.8656 21.0422 20.2884 18.8757C19.0743 19.1975 17.9232 19.5063 16.7025 19.8329ZM28.55 12.8356C30.8474 11.5535 30.849 11.5519 30.2168 9.20118C30.1748 9.04598 30.1586 8.86975 30.0729 8.74365C29.9824 8.60946 29.8304 8.4397 29.6914 8.42676C28.9364 8.35886 28.1765 8.33623 27.331 8.29419C27.7562 9.87698 28.1426 11.3175 28.55 12.8356Z" fill="#10982E"/>
<path d="M31.782 4.80042C31.617 4.6921 31.3551 4.61288 31.2986 4.45929C31.2177 4.23941 31.1805 3.87726 31.3066 3.72529C32.3381 2.48848 33.3955 1.26946 34.4948 0.0924778C34.6274 -0.0497952 35.1205 -0.0174604 35.3194 0.118346C35.4633 0.216967 35.5263 0.726239 35.4067 0.873362C34.3865 2.11987 33.3179 3.32757 32.254 4.53689C32.1554 4.64845 31.9808 4.6921 31.782 4.80042Z" fill="#10982E"/>
<path d="M40.7171 12.7483C39.0131 12.4444 37.5257 12.2099 36.0577 11.8866C35.8071 11.8316 35.6389 11.3935 35.4336 11.1316C35.7295 10.9731 36.0496 10.6482 36.3196 10.6837C37.7827 10.8777 39.2426 11.1299 40.6848 11.4404C40.9483 11.4969 41.2975 11.9157 41.304 12.1744C41.3104 12.3894 40.8675 12.6141 40.7171 12.7483Z" fill="#10982E"/>
<path d="M39.2977 5.72517C39.2072 5.8351 39.0891 6.09863 38.8854 6.2118C37.5759 6.94904 36.2631 7.68142 34.9147 8.34266C34.6787 8.45907 34.2729 8.23273 33.9463 8.16482C34.0708 7.85279 34.1063 7.38717 34.3343 7.25137C35.6245 6.48503 36.955 5.78337 38.2888 5.08979C38.8078 4.82303 39.2702 5.07847 39.2977 5.72517Z" fill="#10982E"/>
</svg>
