<svg width="40" height="40" viewBox="0 0 40 40" fill="none" xmlns="http://www.w3.org/2000/svg">
<path d="M25.4753 31.7261C25.913 32.8305 26.3491 33.9333 26.7868 35.0376C27.0828 35.7853 27.4036 36.5236 27.6731 37.2791C28.2027 38.7619 27.3662 39.9566 25.8008 39.9815C23.3585 40.022 23.2121 39.9239 22.2993 37.6685C21.5594 35.8414 20.8118 34.0189 20.0797 32.1887C19.927 31.8087 19.7261 31.5408 19.3164 31.3803C18.6358 31.1155 18.142 30.6124 17.9083 29.9099C17.7884 29.5486 17.5657 29.3928 17.2152 29.2807C15.5485 28.7417 14.6404 27.5252 14.6436 25.8944C14.6467 24.2776 15.5594 23.072 17.2464 22.5315C17.6124 22.4146 17.7791 22.2184 17.9192 21.8819C18.3616 20.8259 19.1591 20.2511 20.3304 20.2527C21.913 20.2527 23.4971 20.2667 25.0796 20.2418C25.4846 20.2355 25.9083 20.1639 26.2852 20.0221C29.1497 18.9458 32.0033 17.8446 34.8615 16.7527C35.0796 16.6701 35.2977 16.5782 35.5235 16.5284C36.4316 16.3306 37.1434 16.8617 37.1668 17.7885C37.1949 18.9038 37.1964 20.0206 37.1668 21.1358C37.1544 21.6218 37.3163 21.8508 37.7821 22.0486C39.2011 22.6514 39.9752 23.7371 39.9783 25.3165C39.9783 25.7059 39.9783 26.0953 39.9783 26.4847C39.9799 28.061 39.2229 29.1623 37.8023 29.7635C37.3023 29.9754 37.1466 30.2277 37.1653 30.7417C37.2011 31.7012 37.1076 32.6669 37.1917 33.6202C37.3086 34.9566 36.3428 35.684 34.9488 35.1249C32.0858 33.9769 29.1918 32.9052 26.3102 31.8056C26.0796 31.7168 25.8413 31.6467 25.6077 31.5688L25.4737 31.7292L25.4753 31.7261ZM35.8008 17.9567C35.5843 18.0128 35.4581 18.0346 35.3413 18.0782C32.6263 19.1109 29.9161 20.1561 27.1965 21.1748C26.7323 21.3477 26.5718 21.6047 26.5765 22.0953C26.5983 24.5875 26.6077 27.0797 26.5703 29.5704C26.5609 30.1934 26.7557 30.4894 27.3413 30.7059C29.8958 31.6482 32.4316 32.6389 34.9768 33.6093C35.2291 33.7059 35.4908 33.776 35.8008 33.8741V17.9567ZM25.1638 30.2106V21.6094C23.5158 21.6094 21.9348 21.5829 20.3569 21.6203C19.6186 21.6374 19.1373 22.128 19.1264 22.8741C19.0953 24.8975 19.0953 26.9224 19.1264 28.9458C19.1373 29.6919 19.6171 30.181 20.3585 30.1981C21.9364 30.2355 23.5174 30.209 25.1638 30.209V30.2106ZM21.3336 31.575C22.2899 33.9037 23.1638 36.0563 24.0719 38.1949C24.1529 38.3865 24.4457 38.5641 24.6669 38.603C25.0438 38.67 25.4441 38.6529 25.8289 38.6124C26.3491 38.5563 26.5407 38.2417 26.3444 37.7417C25.5874 35.8133 24.818 33.8897 24.0282 31.9738C23.9582 31.8025 23.7105 31.6046 23.5345 31.5937C22.8694 31.5486 22.198 31.575 21.3336 31.575ZM37.2244 28.3881C38.321 28.0346 38.6575 27.343 38.6279 25.5891C38.6076 24.4084 38.159 23.709 37.2244 23.4427V28.3881ZM17.6825 27.8508V23.9645C16.6576 24.1607 15.9753 25.0003 16.0049 25.952C16.0345 26.9053 16.6872 27.6716 17.6825 27.8523V27.8508Z" fill="#3834F2"/>
<path d="M5.46879 28.6622C5.8177 28.6622 6.09807 28.6622 6.38 28.6622C8.71488 28.6622 11.0513 28.6622 13.3862 28.6622C13.5934 28.6622 13.8021 28.6622 14.0092 28.6685C14.4282 28.6841 14.7133 28.8725 14.7242 29.3196C14.7351 29.7619 14.4719 29.9753 14.0466 30.0065C13.9173 30.0158 13.7865 30.0143 13.6572 30.0143C10.9843 30.0143 8.31145 30.0174 5.63857 30.0143C4.47035 30.0127 4.04823 29.589 4.04823 28.4146C4.04512 19.8243 4.04512 11.2355 4.04823 2.64524C4.05135 0.975463 5.03733 0.00506228 6.72423 0.00350466C13.4968 -0.00116822 20.2709 -0.00116822 27.0434 0.00350466C28.7163 0.00350466 29.6945 0.986366 29.6961 2.66393C29.7023 7.36173 29.6992 12.058 29.6961 16.7558C29.6961 16.9364 29.7506 17.1701 29.6618 17.2885C29.4951 17.5097 29.2413 17.8072 29.0232 17.8072C28.8051 17.8072 28.5263 17.5206 28.3861 17.2916C28.2802 17.1187 28.3456 16.8368 28.3456 16.6031C28.3456 14.1374 28.3456 11.6717 28.3456 9.20751C28.3456 8.92402 28.3456 8.64054 28.3456 8.28228H5.46879V28.6622ZM28.3425 6.80565C28.3425 5.32747 28.369 3.95364 28.3332 2.58137C28.3114 1.76985 27.8223 1.35864 26.9329 1.35708C20.2382 1.34929 13.5435 1.34929 6.84729 1.35708C5.85975 1.35708 5.41739 1.80256 5.40493 2.78231C5.38935 3.95053 5.39714 5.11719 5.40493 6.28541C5.40493 6.45675 5.46256 6.62653 5.49371 6.80565H28.3425Z" fill="#3834F2"/>
<path d="M12.2858 34.0642V38.5735C12.577 38.5938 12.8481 38.6265 13.1207 38.6281C15.4306 38.6327 17.7406 38.6296 20.0505 38.6312C20.2577 38.6312 20.468 38.6234 20.672 38.6483C21.063 38.6966 21.3387 38.9443 21.2499 39.3228C21.1923 39.5658 20.9228 39.7901 20.6969 39.9505C20.5739 40.0377 20.3449 39.9832 20.1627 39.9832C16.4259 39.9832 12.6876 39.9848 8.95089 39.9832C8.1051 39.9832 7.79046 39.7869 7.80448 39.2869C7.8185 38.8103 8.10821 38.6374 8.91506 38.6327C9.53344 38.6296 10.1518 38.6327 10.8372 38.6327V34.1078C10.5412 34.0938 10.2655 34.0689 9.98827 34.0689C7.57395 34.0658 5.16119 34.072 2.74687 34.0642C0.98987 34.0564 0.00389406 33.0705 0.00233644 31.3088C-0.000778812 24.0689 -0.000778812 16.8275 0.00233644 9.58614C0.00233644 8.24191 0.630059 7.31357 1.7718 6.96466C2.01479 6.88989 2.28114 6.86809 2.53659 6.86964C2.926 6.8712 3.23129 7.09083 3.18145 7.47868C3.14874 7.72945 2.92756 8.07057 2.70482 8.16092C1.42756 8.68428 1.3528 8.75437 1.3528 10.1391C1.3528 17.016 1.3528 23.8945 1.3528 30.7714C1.3528 32.3508 1.70482 32.7091 3.25777 32.7091C8.08485 32.7091 12.9119 32.7091 17.739 32.7091C17.9976 32.7091 18.2966 32.6421 18.5069 32.7465C18.7437 32.8664 19.0085 33.1187 19.0677 33.3602C19.1611 33.7356 18.8901 33.9895 18.4991 34.0409C18.2951 34.0689 18.0848 34.0595 17.8776 34.0595C16.32 34.0595 14.7639 34.0595 13.2063 34.0595C12.9275 34.0595 12.6487 34.0595 12.2858 34.0595V34.0642Z" fill="#3834F2"/>
<path d="M12.4613 16.1748C12.4613 15.1125 12.5236 14.044 12.4458 12.9863C12.3398 11.5564 14.1903 10.6405 15.2651 11.3352C16.9598 12.4318 18.7697 13.3477 20.5127 14.3711C21.9566 15.22 21.9675 16.9816 20.5423 17.8103C18.7728 18.8399 16.9894 19.8446 15.2105 20.8586C15.0532 20.9489 14.8943 21.0377 14.7277 21.1078C13.6296 21.5704 12.505 20.8726 12.4707 19.6732C12.438 18.5081 12.4629 17.3399 12.4629 16.1732H12.4598L12.4613 16.1748ZM13.8134 16.1826C13.8134 17.1436 13.8071 18.1031 13.8149 19.0642C13.8227 19.8586 13.9769 19.9474 14.6778 19.5486C16.3476 18.6016 18.0143 17.6483 19.6778 16.6904C20.3538 16.2994 20.3616 15.9147 19.6654 15.5066C18.0532 14.5626 16.4302 13.639 14.8009 12.7246C14.1514 12.3602 13.8305 12.5533 13.818 13.301C13.8009 14.2605 13.8134 15.2215 13.8134 16.1826Z" fill="#3834F2"/>
<path d="M33.7519 12.2794C33.7519 13.2373 33.7534 14.1937 33.7519 15.1517C33.7488 15.9912 33.5525 16.3074 33.0541 16.2918C32.579 16.2778 32.403 15.9865 32.4014 15.1844C32.3983 13.4258 32.403 11.6657 32.3983 9.90714C32.3952 8.79188 32.2067 8.53175 31.1195 8.20621C30.7036 8.0816 30.4964 7.84017 30.5588 7.41649C30.6164 7.01774 30.903 6.88067 31.2815 6.86042C32.5229 6.79033 33.702 7.91026 33.741 9.25293C33.7706 10.2607 33.7472 11.2701 33.7472 12.2794H33.7519Z" fill="#3834F2"/>
<path d="M12.7445 4.78087C11.2647 4.78087 9.78655 4.78243 8.30681 4.77932C8.07472 4.77932 7.78967 4.82604 7.62457 4.71234C7.42363 4.57371 7.22114 4.29334 7.21024 4.06437C7.20089 3.87745 7.42986 3.60954 7.62301 3.49739C7.80369 3.39303 8.07628 3.43197 8.30836 3.43041C11.3193 3.4273 14.3286 3.42885 17.3395 3.42885C17.366 3.42885 17.3909 3.42885 17.4174 3.42885C18.179 3.43976 18.4952 3.65471 18.4688 4.1438C18.4438 4.60019 18.1635 4.77776 17.4174 4.77932C15.8597 4.78399 14.3037 4.77932 12.746 4.77932L12.7445 4.78087Z" fill="#3834F2"/>
<path d="M21.5336 5.0816C20.9806 5.07537 20.5632 4.64546 20.5694 4.09095C20.5756 3.53799 21.004 3.12055 21.5601 3.12678C22.113 3.13301 22.5305 3.56136 22.5242 4.11743C22.518 4.67038 22.0881 5.08938 21.5336 5.0816Z" fill="#3834F2"/>
<path d="M26.577 4.11743C26.5707 4.67038 26.1408 5.08938 25.5863 5.0816C25.0334 5.07381 24.6159 4.64546 24.6221 4.09095C24.6284 3.53799 25.0583 3.12055 25.6128 3.12678C26.1657 3.13301 26.5832 3.56136 26.577 4.11743Z" fill="#3834F2"/>
</svg>
