<svg width="42" height="40" viewBox="0 0 42 40" fill="none" xmlns="http://www.w3.org/2000/svg">
<path d="M17.0507 32.6632C16.7196 32.6632 16.3649 32.6632 16.012 32.6632C11.315 32.6632 6.61798 32.665 1.921 32.6632C0.345634 32.6614 0 32.314 0 30.7386C0 23.9805 0 17.2225 0 10.4644C0 8.66712 0.289241 8.38516 2.13202 8.38516C3.30899 8.38516 4.48415 8.38516 5.78119 8.38516C5.78119 7.61385 5.76663 6.92622 5.78482 6.24041C5.81939 4.96338 6.5907 4.07564 7.85863 4.05745C11.1312 4.01198 14.4038 4.01198 17.6765 4.05927C18.9335 4.07746 19.703 4.95792 19.7648 6.2495C19.7957 6.91166 19.7703 7.57565 19.7703 8.31239C21.2638 8.31239 22.6973 8.31239 24.1616 8.31239C24.2653 7.76847 24.3417 7.23001 24.4745 6.7061C25.657 2.00548 30.3667 -0.877838 35.0164 0.240925C39.7752 1.38698 42.7313 6.14763 41.5834 10.8919C41.4088 11.6141 41.1105 12.3581 40.6793 12.953C40.1263 13.717 39.9753 14.4938 39.9808 15.4033C40.0062 20.4642 39.9935 25.525 39.9935 30.5858C39.9935 32.3613 39.6952 32.665 37.9524 32.665C33.3155 32.6669 28.6804 32.665 24.0434 32.665C23.6832 32.665 23.323 32.665 22.8119 32.665C22.8119 33.2308 22.7555 33.7402 22.8391 34.2259C22.8737 34.4187 23.1993 34.6443 23.4322 34.7043C24.3399 34.9371 25.2713 35.0718 26.1754 35.3173C26.6629 35.4501 27.1414 35.6866 27.5689 35.9613C28.7076 36.689 28.7713 37.8859 27.5616 38.4644C26.33 39.0556 24.9621 39.4649 23.6105 39.6869C20.4743 40.2017 17.329 40.0962 14.2401 39.263C13.6053 39.092 12.9686 38.8337 12.4137 38.4881C11.2677 37.7713 11.2422 36.5944 12.4374 35.9831C13.4688 35.4556 14.6276 35.1354 15.7646 34.868C17.3436 34.4896 17.3799 34.5133 17.0507 32.6632ZM39.0003 16.1092C38.9348 16.0892 38.8711 16.071 38.8056 16.051C38.6601 16.5039 38.4382 16.9478 38.3799 17.4117C38.1707 19.1216 37.9834 20.8334 37.8469 22.5507C37.685 24.5881 36.368 26.329 34.4415 26.9439C32.5424 27.5497 30.4995 26.913 29.2316 25.3085C28.4475 24.3153 28.1728 23.171 28.1565 21.9158C28.1219 19.4491 27.9545 16.9824 26.5593 14.834C25.4696 13.1585 24.2399 11.5668 24.2162 9.43116C22.6991 9.43116 21.2892 9.43116 19.7721 9.43116C19.7721 10.8373 19.7921 12.1926 19.7666 13.546C19.7393 15.0286 18.9298 15.8381 17.4454 15.88C16.4758 15.9072 15.488 16.0037 14.5403 15.8636C12.3464 15.5416 10.651 16.1546 9.54678 18.143C9.48857 18.2466 9.40489 18.3522 9.30665 18.4122C9.09018 18.545 8.85551 18.6505 8.62812 18.7687C8.50806 18.5159 8.30068 18.2703 8.28249 18.0102C8.23337 17.328 8.26611 16.6422 8.26611 16.0055C6.17412 15.5361 5.78119 15.0341 5.78119 13.0221C5.78119 11.847 5.78119 10.6736 5.78119 9.3784C4.39501 9.3784 3.09979 9.41296 1.81003 9.36385C1.09693 9.33656 0.947765 9.6349 0.949584 10.2752C0.965957 17.0951 0.967776 23.9132 0.947765 30.7331C0.945946 31.4171 1.10785 31.69 1.85551 31.6882C13.9491 31.6663 26.0408 31.6663 38.1344 31.6882C38.8893 31.69 39.0403 31.4062 39.0367 30.7313C39.0148 26.0034 39.0257 21.2755 39.0239 16.5476C39.0221 16.4039 39.0075 16.2565 39.0003 16.1092ZM36.8974 19.9403C36.941 19.8129 37.0047 19.7019 37.012 19.5873C37.1957 16.9987 38.178 14.7448 39.7279 12.6747C40.9958 10.9829 41.0868 9.00912 40.6284 7.02445C39.9117 3.92648 37.3576 1.51068 34.3306 1.09046C30.9488 0.619304 28.1765 1.76899 26.3883 4.68687C24.6401 7.53744 24.611 10.4844 26.6884 13.2695C27.8363 14.8067 28.5603 16.5112 28.8568 18.4013C28.9369 18.907 28.9987 19.4145 29.066 19.9148C29.7755 19.9148 30.4267 19.9148 31.098 19.9148C31.098 17.1916 31.098 14.5338 31.098 11.8724C30.7214 11.7487 30.2848 11.7287 30.0593 11.5013C29.6427 11.0811 29.0988 10.5463 29.0824 10.0424C29.066 9.59124 29.5954 8.97637 30.0483 8.68349C30.8287 8.17778 31.7165 8.30875 32.5733 8.68531C32.8225 8.79446 33.1991 8.7981 33.4465 8.68713C34.4033 8.26328 35.3329 8.23599 36.2279 8.78355C37.2921 9.43297 37.2939 10.7318 36.2261 11.374C35.8259 11.6141 35.3529 11.7342 34.9418 11.8979C34.9418 14.592 34.9418 17.2461 34.9418 19.9384C35.6276 19.9403 36.2552 19.9403 36.8974 19.9403ZM9.30302 16.9059C9.68503 16.4694 10.0179 16.1637 10.2581 15.7981C10.7183 15.0977 11.3077 14.8576 12.1572 14.8922C13.9127 14.9631 15.6718 14.9231 17.4291 14.9085C18.3368 14.9013 18.7588 14.5356 18.7661 13.6752C18.7898 11.1903 18.7825 8.70532 18.7661 6.2204C18.7607 5.45818 18.3313 5.03978 17.5655 5.03796C14.3529 5.02887 11.1403 5.02887 7.92776 5.03978C7.15645 5.0416 6.74169 5.49093 6.73441 6.24041C6.7144 8.72533 6.71804 11.2103 6.73259 13.6952C6.73623 14.3937 7.10915 14.8212 7.82952 14.9085C9.12656 15.065 9.12474 15.0668 9.20842 16.3511C9.22297 16.4839 9.25572 16.6203 9.30302 16.9059ZM27.6653 37.2874C26.1645 35.9813 24.52 35.8667 22.9065 35.6211C22.6827 36.9764 22.6827 36.9764 21.3002 36.9782C20.4215 36.9782 19.5447 36.9782 18.6661 36.9782C17.3108 36.9782 17.3108 36.9782 17.0525 35.6084C15.4535 35.8885 13.809 35.9831 12.3119 37.2947C12.954 37.6458 13.3851 37.9933 13.8781 38.1352C17.9602 39.3212 22.0551 39.3212 26.1354 38.1261C26.6229 37.9842 27.0504 37.6331 27.6653 37.2874ZM29.2516 22.7417C29.3771 24.7009 31.0289 26.198 33.019 26.1944C35.0073 26.1908 36.6681 24.6736 36.7609 22.7417C34.2851 22.7417 31.8111 22.7417 29.2516 22.7417ZM33.9013 19.9366C33.9013 17.2698 33.9304 14.6757 33.8612 12.0834C33.854 11.796 33.29 11.303 32.9917 11.3085C32.7006 11.314 32.2131 11.8124 32.1731 12.138C32.0603 13.0603 32.1331 14.0063 32.1331 14.9431C32.1331 16.5949 32.1331 18.2448 32.1331 19.9366C32.7479 19.9366 33.25 19.9366 33.9013 19.9366ZM18.2313 32.7324C18.2313 33.8893 18.2313 34.9335 18.2313 35.9377C19.4738 35.9377 20.638 35.9377 21.7622 35.9377C21.7622 34.8153 21.7622 33.7693 21.7622 32.7324C20.5434 32.7324 19.4028 32.7324 18.2313 32.7324ZM37.0138 21.2828C36.9447 21.1773 36.8755 21.0699 36.8064 20.9644C34.2705 20.9644 31.7347 20.9644 29.1988 20.9644C28.9823 21.5429 29.1533 21.763 29.7464 21.7576C31.9293 21.7394 34.1105 21.7648 36.2934 21.7303C36.5354 21.7285 36.7737 21.4392 37.0138 21.2828ZM31.2144 9.07643C30.736 9.48573 30.3685 9.80044 30.0029 10.1151C30.414 10.3516 30.8324 10.7864 31.2326 10.77C31.6674 10.7518 32.0839 10.3116 32.5078 10.0551C32.1312 9.76951 31.7565 9.48573 31.2144 9.07643ZM34.7253 9.07279C34.2542 9.49301 33.8958 9.81135 33.5374 10.1315C33.9522 10.3625 34.3488 10.73 34.7872 10.7864C35.2874 10.8501 36.0296 10.7537 35.9641 10.0442C35.9369 9.73313 35.2729 9.48027 34.7253 9.07279Z" fill="#D3840D"/>
<path d="M17.4505 29.4706C15.695 29.4706 13.9341 29.4088 12.1823 29.4888C10.6906 29.558 9.31352 29.3087 7.98919 28.6229C7.29247 28.2627 6.53389 28.0263 5.82625 27.6879C5.2514 27.4132 5.2132 26.9402 5.77713 26.7183C7.86003 25.9015 9.78467 24.7409 12.2168 24.8446C16.2971 25.0192 20.3902 24.8846 24.4796 24.8992C25.7512 24.9046 26.6553 25.6705 26.8608 26.8384C27.0464 27.8844 26.3897 28.9977 25.3364 29.3324C24.9707 29.4488 24.5633 29.4615 24.174 29.4634C21.931 29.4779 19.6898 29.4706 17.4505 29.4706ZM10.6815 28.4592C14.358 28.4592 17.9744 28.4592 21.5672 28.4592C21.5672 27.5624 21.5672 26.7329 21.5672 25.9015C17.9071 25.9015 14.3179 25.9015 10.6815 25.9015C10.6815 26.7911 10.6815 27.6224 10.6815 28.4592ZM22.6368 28.5156C23.3517 28.5156 24.0139 28.5629 24.667 28.5029C25.431 28.4337 25.8894 27.9571 25.8949 27.1822C25.8985 26.4472 25.4601 25.967 24.7452 25.8851C24.0666 25.8069 23.3736 25.8688 22.6368 25.8688C22.6368 26.7565 22.6368 27.5624 22.6368 28.5156ZM7.09054 27.1913C8.0092 27.5751 8.76778 27.8916 9.58093 28.2318C9.58093 27.486 9.58093 26.8566 9.58093 26.1435C8.75141 26.4927 8.01102 26.8038 7.09054 27.1913Z" fill="#D3840D"/>
<path d="M7.10172 21.7812C7.10172 22.598 7.08353 23.4148 7.10718 24.2297C7.12355 24.7973 6.91435 25.0756 6.32132 25.0629C5.56638 25.0447 4.80962 25.0393 4.05469 25.0647C3.41072 25.0866 3.22153 24.7809 3.2288 24.1788C3.25245 22.5471 3.25427 20.9135 3.2288 19.2817C3.21971 18.6723 3.42527 18.3813 4.06014 18.4013C4.78416 18.4249 5.51181 18.4304 6.23582 18.3994C6.92163 18.3703 7.13629 18.6887 7.109 19.3345C7.07626 20.1476 7.10354 20.9644 7.10172 21.7812ZM4.24751 19.4454C4.24751 21.0263 4.24751 22.5125 4.24751 24.026C4.89876 24.026 5.48634 24.026 6.11212 24.026C6.11212 22.4797 6.11212 20.9899 6.11212 19.4454C5.47724 19.4454 4.88967 19.4454 4.24751 19.4454Z" fill="#D3840D"/>
<path d="M12.4358 21.0281C11.1951 21.0281 9.95265 21.0572 8.71383 21.0063C8.42095 20.9953 8.13898 20.7188 7.85156 20.5642C8.1499 20.3896 8.4446 20.0694 8.74475 20.0658C11.1951 20.0239 13.6473 20.0257 16.0977 20.0658C16.4015 20.0712 16.6998 20.3823 17 20.5515C16.6889 20.7116 16.3833 20.9935 16.0649 21.0081C14.857 21.0608 13.6455 21.0281 12.4358 21.0281Z" fill="#D3840D"/>
<path d="M12.3607 23.4202C11.151 23.4202 9.93948 23.4548 8.7334 23.3966C8.43324 23.382 8.14946 23.0637 7.8584 22.8854C8.14946 22.7399 8.44052 22.4707 8.7334 22.467C11.2129 22.4325 13.6923 22.4325 16.1718 22.4688C16.4501 22.4725 16.7248 22.7672 17.0032 22.9273C16.7266 23.0928 16.4556 23.3875 16.1718 23.3984C14.9021 23.4493 13.6305 23.4202 12.3607 23.4202Z" fill="#D3840D"/>
</svg>
