<svg width="40" height="40" viewBox="0 0 40 40" fill="none" xmlns="http://www.w3.org/2000/svg">
<path d="M35.284 9.43937C35.537 9.11294 35.79 8.74747 36.0836 8.41949C36.4257 8.03683 36.8021 8.05558 37.1644 8.41792C38.0094 9.266 38.8574 10.111 39.704 10.9575C40.0648 11.3183 40.071 11.6806 39.7071 12.0445C38.8606 12.891 38.0156 13.7391 37.1675 14.5841C36.8083 14.9417 36.4413 14.9495 36.0774 14.5872C35.2277 13.7438 34.3812 12.8973 33.5316 12.0554C33.1661 11.6931 33.1552 11.3229 33.5238 10.9715C33.7455 10.7591 34.0111 10.592 34.2735 10.3905C28.7477 6.06736 20.2997 5.73625 14.4287 9.94696C15.1331 13.522 13.3042 15.3556 9.99467 14.392C5.88703 19.8193 5.87141 28.5453 10.2742 34.1024C11.633 33.1012 11.633 33.1012 12.895 34.371C13.4276 34.9067 13.9492 35.4518 14.4943 35.9734C14.9394 36.3998 14.9738 36.7934 14.5193 37.237C13.6993 38.0366 12.8903 38.8457 12.0875 39.6625C11.6658 40.092 11.2894 40.0498 10.8849 39.6375C10.1212 38.8566 9.36056 38.071 8.56246 37.3229C8.01269 36.8075 8.01894 36.3561 8.59213 35.9016C8.87795 35.6751 9.18876 35.4799 9.45115 35.2956C5.41535 29.484 4.64693 23.4834 6.90222 16.9955C5.87297 18.0248 4.83123 19.0431 3.82696 20.0958C3.71139 20.2176 3.76449 20.5315 3.78948 20.7518C3.93161 21.9825 3.14913 22.9571 1.97619 22.9899C0.853223 23.0258 -0.0229686 22.1621 0.000459022 21.0454C0.0254484 19.8803 1.01722 19.0259 2.22139 19.229C2.67277 19.3039 2.93047 19.2009 3.22878 18.8994C4.92962 17.1783 6.6414 15.4681 8.36411 13.7688C8.67335 13.4642 8.78893 13.2315 8.58432 12.7739C8.00176 11.4776 8.25946 10.2765 9.23405 9.25507C10.1618 8.2836 11.4784 8.01653 12.7482 8.57098C13.1793 8.75997 13.4276 8.7178 13.7509 8.38825C15.4627 6.64055 17.1932 4.91159 18.9346 3.19513C19.2236 2.91088 19.2954 2.66255 19.2283 2.25178C19.0268 1.03667 19.8499 0.0402192 21.0119 0.00117319C22.1302 -0.0363109 23.0079 0.828948 22.986 1.94879C22.9642 3.12797 22.0161 3.88547 20.7667 3.79957C20.4574 3.7777 20.0513 3.89484 19.8311 4.101C18.8503 5.00999 17.9194 5.97365 17.0011 6.97478C23.4577 4.63046 29.4802 5.39889 35.284 9.43937ZM11.4675 13.447C12.5451 13.4642 13.412 12.6474 13.4463 11.5822C13.4807 10.4842 12.6279 9.57056 11.544 9.54713C10.4726 9.5237 9.54954 10.4311 9.54798 11.5057C9.54798 12.5584 10.4101 13.4314 11.4675 13.447ZM11.519 34.8192C10.9083 35.433 10.3133 36.0297 9.71666 36.6294C10.3086 37.226 10.8912 37.8133 11.4503 38.3787C12.0703 37.7805 12.6763 37.1932 13.2808 36.6107C12.6842 36.0031 12.1078 35.4174 11.519 34.8192ZM36.549 13.2237C37.1863 12.6364 37.8048 12.0648 38.4217 11.4947C37.8126 10.8763 37.2316 10.289 36.6756 9.72518C36.0555 10.3249 35.4511 10.9106 34.8576 11.4854C35.4495 12.0961 36.0258 12.688 36.549 13.2237ZM21.1009 0.988255C20.7979 1.40683 20.4793 1.6536 20.4918 1.88319C20.5043 2.11434 20.8448 2.32831 21.0416 2.55009C21.2696 2.33456 21.6288 2.14714 21.685 1.89256C21.7288 1.69733 21.3945 1.4162 21.1009 0.988255ZM2.82739 21.086C2.40725 20.7892 2.16985 20.4941 1.92777 20.4909C1.72317 20.4878 1.51232 20.822 1.30459 21.0079C1.53106 21.2375 1.72317 21.5577 1.99649 21.6623C2.13705 21.7139 2.42443 21.3781 2.82739 21.086Z" fill="#D3840D"/>
<path d="M16.1937 13.3674C16.5045 13.4814 16.7013 13.5485 16.8934 13.6251C21.9585 15.6492 27.022 17.6796 32.0932 19.6897C32.618 19.8974 32.9335 20.202 33.1303 20.7408C33.8284 22.6431 34.5516 24.5361 35.32 26.4103C35.4684 26.7742 35.8104 27.1319 36.1571 27.3271C37.2208 27.9237 38.3375 28.4266 39.4214 28.9889C40.1164 29.3497 40.1804 29.7058 39.6369 30.2524C36.5164 33.3855 33.3896 36.5138 30.255 39.6344C29.7068 40.181 29.3475 40.117 28.9899 39.4267C28.4276 38.3427 27.9231 37.2276 27.3281 36.1624C27.1344 35.8157 26.7783 35.4705 26.416 35.3221C24.5168 34.5459 22.5816 33.8587 20.6856 33.0747C20.306 32.9185 19.9047 32.5358 19.7516 32.1594C17.6775 27.0585 15.6518 21.9372 13.5917 16.83C13.3512 16.2349 13.4027 15.8179 13.8947 15.3868C14.4804 14.8745 14.9958 14.281 15.5643 13.7485C15.7564 13.5673 16.0219 13.4673 16.1937 13.3674ZM14.8927 16.0553C14.9115 16.3271 14.8693 16.5879 14.9536 16.7987C16.8903 21.6764 18.8348 26.5493 20.798 31.416C20.8917 31.6487 21.1229 31.9033 21.3509 31.9939C23.1845 32.7264 25.0259 33.437 26.8814 34.1117C27.1032 34.1929 27.5108 34.1055 27.6795 33.9415C29.7786 31.883 31.859 29.8042 33.9128 27.7019C34.0908 27.5192 34.1861 27.0834 34.1002 26.8445C33.4395 25.0124 32.7336 23.196 32.012 21.3859C31.9199 21.1531 31.6872 20.9001 31.4591 20.808C26.569 18.8338 21.6711 16.8768 16.7685 14.9323C16.5701 14.8542 16.314 14.923 16.0282 14.923C18.8004 17.703 21.454 20.366 24.1232 23.0445C26.1098 22.084 27.9512 22.4057 29.093 23.9504C30.1862 25.4295 30.0488 27.4333 28.765 28.7327C27.5233 29.99 25.5897 30.1853 24.1154 29.2029C22.4473 28.0924 22.0834 26.2728 23.0143 24.1675C20.3107 21.4702 17.6494 18.8119 14.8927 16.0553ZM29.752 38.1444C32.5727 35.3268 35.3419 32.5608 38.1454 29.7604C37.1895 29.2825 36.1837 28.7796 35.2653 28.3204C32.9054 30.6694 30.6251 32.9419 28.3027 35.2534C28.7806 36.2061 29.2757 37.1948 29.752 38.1444ZM26.177 23.7317C24.8198 23.7177 23.7358 24.7813 23.7312 26.1323C23.7249 27.4755 24.8151 28.5766 26.1504 28.5719C27.4499 28.5672 28.5385 27.5005 28.5697 26.1979C28.6025 24.8672 27.5139 23.7458 26.177 23.7317Z" fill="#D3840D"/>
</svg>
