<svg width="40" height="40" viewBox="0 0 40 40" fill="none" xmlns="http://www.w3.org/2000/svg">
<path d="M25.4754 31.7261C25.9131 32.8305 26.3492 33.9332 26.7869 35.0376C27.0829 35.7853 27.4037 36.5236 27.6732 37.279C28.2028 38.7619 27.3664 39.9566 25.8009 39.9815C23.3586 40.022 23.2122 39.9239 22.2994 37.6684C21.5595 35.8413 20.8119 34.0189 20.0798 32.1887C19.9271 31.8086 19.7262 31.5407 19.3166 31.3803C18.6359 31.1155 18.1421 30.6124 17.9085 29.9099C17.7885 29.5485 17.5658 29.3928 17.2153 29.2806C15.5487 28.7417 14.6406 27.5252 14.6437 25.8943C14.6468 24.2775 15.5596 23.0719 17.2465 22.5314C17.6125 22.4146 17.7792 22.2184 17.9194 21.8819C18.3617 20.8258 19.1592 20.2511 20.3306 20.2526C21.9131 20.2526 23.4972 20.2666 25.0798 20.2417C25.4848 20.2355 25.9084 20.1638 26.2854 20.0221C29.1498 18.9458 32.0034 17.8445 34.8617 16.7526C35.0797 16.6701 35.2978 16.5782 35.5236 16.5283C36.4317 16.3305 37.1436 16.8617 37.1669 17.7885C37.195 18.9037 37.1965 20.0205 37.1669 21.1358C37.1545 21.6218 37.3165 21.8508 37.7822 22.0486C39.2012 22.6514 39.9753 23.737 39.9784 25.3165C39.9784 25.7059 39.9784 26.0953 39.9784 26.4847C39.98 28.061 39.223 29.1622 37.8024 29.7635C37.3024 29.9753 37.1467 30.2277 37.1654 30.7417C37.2012 31.7012 37.1077 32.6669 37.1919 33.6202C37.3087 34.9566 36.343 35.684 34.9489 35.1248C32.086 33.9769 29.1919 32.9052 26.3103 31.8055C26.0798 31.7167 25.8414 31.6467 25.6078 31.5688L25.4738 31.7292L25.4754 31.7261ZM35.8009 17.9567C35.5844 18.0128 35.4582 18.0346 35.3414 18.0782C32.6265 19.1109 29.9162 20.1561 27.1966 21.1747C26.7324 21.3476 26.572 21.6046 26.5766 22.0953C26.5985 24.5875 26.6078 27.0797 26.5704 29.5703C26.5611 30.1934 26.7558 30.4893 27.3414 30.7059C29.8959 31.6482 32.4318 32.6389 34.9769 33.6093C35.2293 33.7058 35.4909 33.7759 35.8009 33.8741V17.9567ZM25.1639 30.2105V21.6093C23.5159 21.6093 21.9349 21.5828 20.3571 21.6202C19.6187 21.6374 19.1374 22.128 19.1265 22.8741C19.0954 24.8975 19.0954 26.9224 19.1265 28.9457C19.1374 29.6918 19.6172 30.1809 20.3586 30.1981C21.9365 30.2354 23.5175 30.209 25.1639 30.209V30.2105ZM21.3337 31.575C22.2901 33.9037 23.1639 36.0563 24.072 38.1949C24.153 38.3865 24.4458 38.5641 24.667 38.603C25.0439 38.67 25.4443 38.6529 25.829 38.6124C26.3492 38.5563 26.5408 38.2416 26.3446 37.7416C25.5876 35.8133 24.8181 33.8896 24.0284 31.9738C23.9583 31.8024 23.7106 31.6046 23.5346 31.5937C22.8695 31.5485 22.1982 31.575 21.3337 31.575ZM37.2246 28.3881C38.3211 28.0345 38.6576 27.3429 38.628 25.5891C38.6077 24.4084 38.1591 23.709 37.2246 23.4426V28.3881ZM17.6826 27.8507V23.9645C16.6577 24.1607 15.9755 25.0003 16.005 25.952C16.0346 26.9052 16.6873 27.6716 17.6826 27.8523V27.8507Z" fill="#DB8C15"/>
<path d="M5.46891 28.6623C5.81782 28.6623 6.09819 28.6623 6.38012 28.6623C8.715 28.6623 11.0514 28.6623 13.3863 28.6623C13.5935 28.6623 13.8022 28.6623 14.0094 28.6685C14.4284 28.6841 14.7134 28.8726 14.7243 29.3196C14.7352 29.762 14.472 29.9754 14.0467 30.0065C13.9175 30.0159 13.7866 30.0143 13.6573 30.0143C10.9845 30.0143 8.31158 30.0174 5.63869 30.0143C4.47047 30.0127 4.04836 29.5891 4.04836 28.4146C4.04524 19.8243 4.04524 11.2356 4.04836 2.64527C4.05147 0.975493 5.03745 0.0050928 6.72436 0.00353517C13.4969 -0.0011377 20.271 -0.0011377 27.0436 0.00353517C28.7165 0.00353517 29.6946 0.986397 29.6962 2.66396C29.7024 7.36176 29.6993 12.058 29.6962 16.7558C29.6962 16.9365 29.7507 17.1701 29.6619 17.2885C29.4953 17.5097 29.2414 17.8072 29.0233 17.8072C28.8052 17.8072 28.5264 17.5206 28.3862 17.2916C28.2803 17.1187 28.3457 16.8368 28.3457 16.6031C28.3457 14.1374 28.3457 11.6717 28.3457 9.20754C28.3457 8.92405 28.3457 8.64057 28.3457 8.28231H5.46891V28.6623ZM28.3426 6.80568C28.3426 5.3275 28.3691 3.95367 28.3333 2.5814C28.3115 1.76988 27.8224 1.35867 26.933 1.35711C20.2383 1.34932 13.5436 1.34932 6.84741 1.35711C5.85987 1.35711 5.41751 1.80259 5.40505 2.78234C5.38947 3.95056 5.39726 5.11722 5.40505 6.28544C5.40505 6.45678 5.46268 6.62656 5.49383 6.80568H28.3426Z" fill="#DB8C15"/>
<path d="M12.2859 34.0643V38.5736C12.5772 38.5939 12.8482 38.6266 13.1208 38.6282C15.4307 38.6328 17.7407 38.6297 20.0506 38.6313C20.2578 38.6313 20.4681 38.6235 20.6721 38.6484C21.0631 38.6967 21.3388 38.9443 21.25 39.3229C21.1924 39.5658 20.9229 39.7901 20.6971 39.9506C20.574 40.0378 20.345 39.9833 20.1628 39.9833C16.426 39.9833 12.6878 39.9848 8.95101 39.9833C8.10522 39.9833 7.79058 39.787 7.8046 39.287C7.81862 38.8104 8.10834 38.6375 8.91519 38.6328C9.53356 38.6297 10.1519 38.6328 10.8373 38.6328V34.1079C10.5413 34.0939 10.2656 34.069 9.98839 34.069C7.57407 34.0659 5.16131 34.0721 2.74699 34.0643C0.989993 34.0565 0.00401613 33.0705 0.00245851 31.3089C-0.000656742 24.069 -0.000656742 16.8276 0.00245851 9.58623C0.00245851 8.242 0.630181 7.31366 1.77192 6.96475C2.01491 6.88999 2.28126 6.86818 2.53671 6.86974C2.92612 6.87129 3.23141 7.09092 3.18157 7.47877C3.14886 7.72955 2.92768 8.07067 2.70494 8.16101C1.42769 8.68437 1.35292 8.75446 1.35292 10.1392C1.35292 17.0161 1.35292 23.8946 1.35292 30.7715C1.35292 32.3509 1.70494 32.7092 3.25789 32.7092C8.08497 32.7092 12.9121 32.7092 17.7391 32.7092C17.9977 32.7092 18.2968 32.6422 18.507 32.7466C18.7438 32.8665 19.0086 33.1188 19.0678 33.3603C19.1612 33.7357 18.8902 33.9895 18.4992 34.0409C18.2952 34.069 18.0849 34.0596 17.8778 34.0596C16.3201 34.0596 14.7641 34.0596 13.2064 34.0596C12.9276 34.0596 12.6488 34.0596 12.2859 34.0596V34.0643Z" fill="#DB8C15"/>
<path d="M12.4615 16.1749C12.4615 15.1126 12.5238 14.044 12.4459 12.9864C12.34 11.5565 14.1904 10.6406 15.2652 11.3353C16.9599 12.4319 18.7698 13.3478 20.5128 14.3711C21.9567 15.2201 21.9676 16.9817 20.5424 17.8104C18.773 18.84 16.9895 19.8446 15.2107 20.8587C15.0533 20.949 14.8945 21.0378 14.7278 21.1079C13.6297 21.5705 12.5051 20.8727 12.4708 19.6733C12.4381 18.5082 12.463 17.34 12.463 16.1733H12.4599L12.4615 16.1749ZM13.8135 16.1827C13.8135 17.1437 13.8072 18.1032 13.815 19.0643C13.8228 19.8587 13.977 19.9474 14.678 19.5487C16.3477 18.6017 18.0144 17.6484 19.6779 16.6905C20.3539 16.2995 20.3617 15.9148 19.6655 15.5067C18.0533 14.5627 16.4303 13.6391 14.801 12.7247C14.1515 12.3603 13.8306 12.5534 13.8182 13.3011C13.801 14.2606 13.8135 15.2216 13.8135 16.1827Z" fill="#DB8C15"/>
<path d="M33.752 12.2794C33.752 13.2374 33.7536 14.1937 33.752 15.1517C33.7489 15.9912 33.5526 16.3074 33.0542 16.2919C32.5791 16.2779 32.4031 15.9866 32.4015 15.1844C32.3984 13.4258 32.4031 11.6657 32.3984 9.90717C32.3953 8.79191 32.2068 8.53178 31.1196 8.20624C30.7037 8.08163 30.4966 7.8402 30.5589 7.41652C30.6165 7.01777 30.9031 6.8807 31.2816 6.86045C32.523 6.79036 33.7022 7.91029 33.7411 9.25296C33.7707 10.2607 33.7473 11.2701 33.7473 12.2794H33.752Z" fill="#DB8C15"/>
<path d="M12.7446 4.78103C11.2649 4.78103 9.78667 4.78258 8.30693 4.77947C8.07484 4.77947 7.7898 4.8262 7.62469 4.71249C7.42375 4.57386 7.22126 4.29349 7.21036 4.06452C7.20101 3.8776 7.42998 3.60969 7.62313 3.49754C7.80381 3.39318 8.0764 3.43212 8.30849 3.43056C11.3194 3.42745 14.3287 3.42901 17.3396 3.42901C17.3661 3.42901 17.391 3.42901 17.4175 3.42901C18.1792 3.43991 18.4954 3.65486 18.4689 4.14396C18.444 4.60034 18.1636 4.77791 17.4175 4.77947C15.8599 4.78414 14.3038 4.77947 12.7462 4.77947L12.7446 4.78103Z" fill="#DB8C15"/>
<path d="M21.5337 5.08163C20.9807 5.0754 20.5633 4.64549 20.5695 4.09098C20.5758 3.53802 21.0041 3.12058 21.5602 3.12681C22.1131 3.13304 22.5306 3.56139 22.5243 4.11746C22.5181 4.67041 22.0882 5.08942 21.5337 5.08163Z" fill="#DB8C15"/>
<path d="M26.5771 4.11746C26.5708 4.67041 26.1409 5.08942 25.5864 5.08163C25.0335 5.07384 24.616 4.64549 24.6223 4.09098C24.6285 3.53802 25.0584 3.12058 25.6129 3.12681C26.1659 3.13304 26.5833 3.56139 26.5771 4.11746Z" fill="#DB8C15"/>
</svg>
