<svg width="40" height="40" viewBox="0 0 40 40" fill="none" xmlns="http://www.w3.org/2000/svg">
<path d="M16.9708 34.118C16.9708 32.7008 16.9904 31.3749 16.9414 30.0522C16.9365 29.9201 16.5223 29.7016 16.294 29.6967C14.9354 29.6624 13.5769 29.6869 12.2184 29.6771C10.8924 29.6673 10.3347 29.1128 10.3151 27.7967C10.3004 26.7366 10.3004 25.6781 10.289 24.6181C10.289 24.5691 10.2499 24.5202 10.1814 24.3636C9.50456 24.3636 8.78044 24.3636 8.05632 24.3636C6.96852 24.3636 5.88234 24.3783 4.79454 24.3571C4.15849 24.3441 3.66433 24.3636 3.24682 25.0486C2.6809 25.9733 1.29464 25.975 0.534647 25.2036C-0.210671 24.4485 -0.17153 23.2106 0.619453 22.5109C1.43001 21.7934 2.76082 21.8994 3.32674 22.8388C3.65454 23.3835 4.01823 23.4748 4.57111 23.4683C6.44337 23.4438 8.31563 23.4585 10.2499 23.4585C10.2499 21.7249 10.2499 20.0565 10.2499 18.2478C9.06421 18.2478 7.88182 18.2511 6.69779 18.2478C4.78638 18.2413 5.01471 18.4305 5.00329 16.5419C4.9984 15.6726 5.00166 14.8017 5.00329 13.9325C5.00329 13.1447 5.10278 12.4369 4.18458 11.8824C3.28759 11.341 3.40828 9.97101 4.20252 9.24364C4.99514 8.51789 6.21015 8.60433 6.88371 9.43608C7.55075 10.2597 7.43332 11.5513 6.51676 12.0814C5.92638 12.4222 5.86277 12.8316 5.87256 13.3975C5.89376 14.6957 5.87908 15.9955 5.87908 17.3394C7.36482 17.3394 8.76576 17.3394 10.2694 17.3394C10.2841 17.067 10.3102 16.7833 10.3118 16.4978C10.3167 15.0839 10.307 13.6715 10.3167 12.2575C10.3265 10.8794 10.8745 10.3266 12.2396 10.3168C13.5166 10.307 14.7935 10.3151 16.0722 10.3151C16.3364 10.3151 16.5989 10.3151 16.9365 10.3151C16.9365 8.14768 16.9545 6.0846 16.9104 4.02478C16.9055 3.79972 16.5582 3.54693 16.3249 3.36753C15.5829 2.79509 15.3317 1.86385 15.7313 1.04351C16.1455 0.190551 17.0996 -0.204125 17.995 0.104114C18.861 0.402567 19.4057 1.24737 19.179 2.16067C19.0714 2.59775 18.7827 3.10659 18.4206 3.33654C17.92 3.65457 17.8254 4.00032 17.8319 4.5271C17.8564 6.42382 17.8417 8.32055 17.8417 10.2662C19.4367 10.2662 20.9469 10.2662 22.5859 10.2662C22.5859 9.09196 22.5859 7.93729 22.5859 6.78262C22.5859 6.45644 22.6088 6.12863 22.5811 5.80408C22.5305 5.20065 22.7898 4.98375 23.3883 4.99353C24.8284 5.01962 26.2685 4.99353 27.7102 5.00658C28.1342 5.00984 28.436 4.98211 28.6773 4.50916C29.0851 3.71165 29.9413 3.43114 30.7665 3.67414C31.5624 3.90899 32.0794 4.59559 32.0875 5.43061C32.0957 6.25095 31.5722 6.97507 30.7991 7.21644C29.9935 7.46759 29.1226 7.18382 28.6904 6.40425C28.4506 5.97207 28.1799 5.85954 27.7298 5.86769C26.324 5.88889 24.9181 5.87584 23.478 5.87584C23.478 7.38768 23.478 8.79188 23.478 10.3151C24.7958 10.3151 26.0924 10.3151 27.3873 10.3151C29.2481 10.3168 29.682 10.7522 29.6836 12.6212C29.6836 13.6487 29.6836 14.6761 29.6836 15.8161C30.2772 15.8161 30.7844 15.8161 31.29 15.8161C32.5409 15.8161 33.7902 15.8047 35.0411 15.821C35.7505 15.8308 36.3295 15.8357 36.8041 15.0594C37.3488 14.1673 38.7155 14.2064 39.4575 14.9501C40.2028 15.6987 40.1686 16.9415 39.3825 17.6444C38.5752 18.3652 37.2428 18.2657 36.6752 17.3263C36.3442 16.7784 35.9772 16.6984 35.4292 16.705C33.557 16.7278 31.6847 16.7131 29.7488 16.7131C29.7488 18.437 29.7488 20.1021 29.7488 21.8879C31.1188 21.8879 32.4692 21.8863 33.8179 21.8879C34.9938 21.8896 34.9938 21.8896 34.9954 23.0606C34.9954 24.4191 34.9709 25.7793 35.0166 27.1362C35.0264 27.4102 35.2449 27.7608 35.4749 27.9271C36.2251 28.4702 36.5594 29.2025 36.3344 30.0343C36.1109 30.8562 35.3705 31.4189 34.529 31.4058C33.7217 31.3928 32.9894 30.8383 32.7676 30.0701C32.5344 29.2677 32.885 28.4865 33.6026 27.9451C33.8521 27.7575 34.087 27.3792 34.0984 27.0791C34.1506 25.6733 34.1213 24.2642 34.1213 22.8094C32.6355 22.8094 31.2346 22.8094 29.6869 22.8094C29.6869 23.1698 29.6869 23.5335 29.6869 23.8988C29.6869 25.1497 29.6917 26.399 29.6852 27.6499C29.6787 29.134 29.1487 29.6689 27.6841 29.6804C26.5164 29.6885 25.347 29.6918 24.1793 29.6999C24.1288 29.6999 24.0798 29.7325 23.9184 29.7913C23.9184 30.4175 23.9184 31.0862 23.9184 31.7532C23.9184 32.8671 23.9265 33.9827 23.9151 35.0965C23.9086 35.7701 23.8678 36.3279 24.6523 36.7731C25.59 37.3064 25.5558 38.7073 24.7648 39.4755C23.9983 40.2192 22.7751 40.1654 22.0787 39.3564C21.3595 38.5198 21.4737 37.2118 22.431 36.6573C22.9904 36.3344 23.0671 35.9658 23.0605 35.4162C23.0377 33.5472 23.0524 31.6766 23.0524 29.744C21.3073 29.744 19.6406 29.744 17.8661 29.744C17.8661 31.1628 17.8303 32.567 17.8808 33.968C17.9085 34.7426 17.6704 35.0411 16.8648 35.0085C15.4541 34.953 14.0384 34.9693 12.6261 35.0134C12.3488 35.0215 11.9917 35.2335 11.8253 35.4635C11.2627 36.2398 10.4961 36.5741 9.64155 36.3132C8.85709 36.0735 8.33194 35.3591 8.33684 34.5372C8.34173 33.7331 8.8946 32.996 9.66275 32.7676C10.4652 32.5295 11.3181 32.8312 11.765 33.6108C11.9868 33.999 12.2184 34.136 12.6554 34.1278C14.058 34.1017 15.4655 34.118 16.9708 34.118ZM19.9993 28.8095C22.5811 28.8095 25.1611 28.7964 27.7428 28.8176C28.5028 28.8241 28.8208 28.5289 28.8192 27.7575C28.8045 22.5958 28.8143 17.434 28.8094 12.2706C28.8094 11.3605 28.6284 11.186 27.6972 11.186C22.5615 11.1828 17.4274 11.1828 12.2918 11.186C11.3638 11.186 11.186 11.3605 11.186 12.2755C11.1811 17.4111 11.1827 22.5452 11.186 27.6809C11.186 28.6447 11.3556 28.8062 12.339 28.8078C14.8914 28.8127 17.4454 28.8095 19.9993 28.8095ZM18.375 1.86385C18.3032 1.28162 18.0162 0.893466 17.3883 0.895097C16.7669 0.896728 16.4212 1.26368 16.4228 1.86874C16.4244 2.44118 16.7849 2.78693 17.3459 2.80813C17.9542 2.83097 18.2885 2.47054 18.375 1.86385ZM29.2808 5.35885C29.2873 6.02752 29.6265 6.38794 30.2071 6.41404C30.7975 6.44013 31.1889 6.07481 31.2101 5.48443C31.2313 4.90057 30.8986 4.51405 30.2838 4.49122C29.6722 4.47001 29.3525 4.81576 29.2808 5.35885ZM1.86382 22.9187C1.27833 22.9741 0.90649 23.2693 0.895074 23.8923C0.885289 24.4745 1.22615 24.8252 1.78228 24.8643C2.38897 24.9067 2.77712 24.5512 2.80648 23.9478C2.83747 23.3427 2.48356 22.997 1.86382 22.9187ZM10.214 35.519C10.8158 35.4553 11.1664 35.1161 11.1501 34.5225C11.1338 33.9256 10.7457 33.5635 10.1585 33.5798C9.57631 33.5978 9.20773 33.9582 9.22567 34.5714C9.24524 35.183 9.61872 35.4765 10.214 35.519ZM39.1101 16.3429C39.0971 15.6987 38.7774 15.3171 38.1773 15.2942C37.5722 15.2714 37.1987 15.6416 37.1857 16.2483C37.1743 16.8093 37.4939 17.1828 38.0713 17.2203C38.6861 17.2611 39.0205 16.9137 39.1101 16.3429ZM23.4813 39.1118C24.0701 39.0661 24.4272 38.7579 24.4289 38.1349C24.4305 37.551 24.0864 37.2118 23.5253 37.1857C22.9154 37.1564 22.5289 37.5201 22.5109 38.1153C22.4914 38.709 22.842 39.0678 23.4813 39.1118ZM5.47951 11.5726C6.09273 11.4992 6.44337 11.1502 6.41238 10.5484C6.38303 9.99059 6.01281 9.63668 5.44853 9.64321C4.84999 9.64973 4.47815 9.99548 4.48793 10.6217C4.49935 11.248 4.88098 11.5367 5.47951 11.5726ZM35.5173 29.5695C35.4782 28.9677 35.1666 28.604 34.5485 28.6007C33.9255 28.5974 33.5765 28.9774 33.5798 29.5711C33.5831 30.1289 33.9435 30.4974 34.5061 30.5154C35.1014 30.5333 35.4618 30.1973 35.5173 29.5695Z" fill="#3834F2"/>
<path d="M19.9454 26.1185C18.4515 26.1185 16.956 26.125 15.4621 26.1168C14.2438 26.1087 13.8834 25.7629 13.8801 24.5708C13.872 21.5275 13.872 18.4843 13.8801 15.441C13.8834 14.2293 14.2308 13.8819 15.4442 13.8786C18.4874 13.8705 21.5307 13.8688 24.5739 13.8786C25.7645 13.8819 26.1118 14.2439 26.1151 15.4639C26.1233 18.4794 26.1216 21.4965 26.1151 24.512C26.1118 25.7678 25.7661 26.1103 24.5103 26.1168C22.9887 26.125 21.4671 26.1185 19.9454 26.1185ZM19.9829 14.7642C18.4629 14.7642 16.9413 14.7772 15.4213 14.756C14.9337 14.7495 14.7527 14.9061 14.7559 15.4084C14.7739 18.45 14.7739 21.4916 14.7559 24.5316C14.7527 25.0551 14.9109 25.2443 15.4507 25.2411C18.4923 25.2215 21.5323 25.2231 24.5739 25.2394C25.0615 25.2427 25.2426 25.0894 25.2393 24.5854C25.223 21.5438 25.2214 18.5022 25.2409 15.4622C25.2442 14.9387 25.086 14.743 24.5462 14.7544C23.0246 14.7821 21.5046 14.7626 19.9829 14.7642Z" fill="#3834F2"/>
</svg>
