<svg width="41" height="40" viewBox="0 0 41 40" fill="none" xmlns="http://www.w3.org/2000/svg">
<path d="M31.5055 10.0678C32.6162 8.37484 33.631 6.8047 34.671 5.25307C35.4149 4.14404 36.6148 3.66441 37.7962 3.9606C39.7652 4.45201 40.6672 6.57751 39.6002 8.34119C38.715 9.80194 37.7457 11.2105 36.8117 12.6427C35.5411 14.5898 34.2503 16.5251 33.0201 18.4975C32.7946 18.8576 32.6869 19.3877 32.7391 19.8118C33.2103 23.6774 33.7353 27.5346 34.2301 31.3969C34.4068 32.7819 33.5805 34.1282 32.2544 34.2948C26.3979 35.0336 20.9823 37.3661 15.3396 38.8673C14.2306 39.1618 13.1451 39.5387 12.0411 39.8518C10.3464 40.3314 9.02704 39.6347 8.51712 37.9433C5.7151 28.6706 2.92654 19.3978 0.148074 10.12C-0.333235 8.51452 0.380314 7.2086 1.9757 6.70373C3.44319 6.23925 4.92077 5.80842 6.39667 5.36919C6.78205 5.25475 7.0429 5.14032 7.10685 4.62198C7.25663 3.3901 8.14688 2.55034 9.3855 2.38541C15.3547 1.5894 21.3257 0.800123 27.2983 0.0310391C29.0249 -0.191103 30.2231 0.793392 30.4453 2.52678C30.7331 4.77681 31.0242 7.02684 31.3204 9.27688C31.349 9.48892 31.418 9.69592 31.5055 10.0678ZM26.1 18.3359C25.713 18.3763 25.4925 18.3948 25.2737 18.4234C23.8584 18.617 22.4448 18.8172 21.0278 19.004C20.565 19.0646 20.0652 19.0798 20.0063 18.4503C19.9474 17.8294 20.4455 17.7519 20.9049 17.693C22.7376 17.4541 24.5753 17.2437 26.4013 16.9593C26.7597 16.9038 27.1805 16.6379 27.3891 16.3417C28.2895 15.0593 29.1478 13.7433 29.964 12.4037C30.176 12.0553 30.3022 11.5639 30.2534 11.1634C29.9337 8.49433 29.5719 5.82862 29.1915 3.16628C28.9424 1.42784 28.5268 1.16363 26.785 1.4026C23.9543 1.79135 21.1203 2.15317 18.288 2.52678C15.4002 2.90879 12.5106 3.28408 9.62447 3.68293C8.73085 3.80578 8.35052 4.28709 8.38586 5.16892C8.39932 5.50382 8.45317 5.83703 8.49693 6.17025C9.19701 11.5033 9.89878 16.8348 10.5972 22.1679C11.1172 26.1395 11.6271 30.1128 12.1572 34.0828C12.2969 35.1295 12.8859 35.5654 13.8906 35.4341C19.7505 34.6684 25.612 33.901 31.4718 33.1319C32.6482 32.9771 33.0605 32.4049 32.9006 31.232C32.6347 29.2899 32.3907 27.3445 32.1315 25.4007C31.938 23.94 31.7361 22.4792 31.5055 20.7862C31.0898 21.4106 30.7583 21.8195 30.521 22.2773C29.2925 24.6552 27.3504 26.3768 25.3124 28.0126C24.5652 28.6134 23.8264 28.6941 23.1482 28.2499C22.4683 27.8056 22.2277 27.0735 22.4717 26.1782C22.5996 25.7121 22.7376 25.2476 22.9042 24.667C21.1304 24.8958 19.4963 25.1062 17.8623 25.3166C16.7229 25.463 15.587 25.6464 14.4426 25.7255C14.1851 25.744 13.9041 25.3923 13.6331 25.2105C13.8435 24.9632 14.032 24.6888 14.276 24.4785C14.382 24.3859 14.5991 24.423 14.7657 24.4011C17.4045 24.051 20.0416 23.6959 22.6804 23.356C23.1684 23.2937 23.4747 23.1355 23.6161 22.592C23.7541 22.0635 24.0385 21.562 24.3263 21.0875C24.8564 20.209 25.4387 19.3541 26.1 18.3359ZM7.21961 6.46644C5.58215 6.96121 4.08101 7.41054 2.58323 7.86997C1.40015 8.23348 1.0905 8.77874 1.44054 9.9433C4.19881 19.1134 6.96044 28.2835 9.72544 37.4519C10.0789 38.6232 10.6191 38.9043 11.819 38.5458C14.207 37.8323 16.5917 37.1086 18.9763 36.3867C19.2523 36.3025 19.525 36.2116 19.8009 36.1225C19.4374 36.0215 19.1076 36.0551 18.7794 36.0972C17.2227 36.2958 15.6694 36.5213 14.1094 36.693C12.2212 36.9016 11.1357 36.0972 10.885 34.2393C9.98797 27.5733 9.12128 20.904 8.24281 14.2364C7.90791 11.6834 7.57133 9.13215 7.21961 6.46644ZM33.562 9.30549C30.765 13.5901 28.0354 17.7738 25.2771 21.9996C26.2212 22.6155 27.0828 23.1776 27.9899 23.77C30.7701 19.5106 33.5132 15.3084 36.2782 11.0742C35.3274 10.4549 34.4859 9.90796 33.562 9.30549ZM38.1967 8.06519C38.7874 7.37857 38.9237 6.70373 38.5249 5.98681C38.1967 5.39612 37.6565 5.1319 36.98 5.19922C36.2782 5.2699 35.8305 5.65023 35.5865 6.34527C36.4717 6.92755 37.3064 7.47786 38.1967 8.06519ZM24.3347 24.4869C24.9489 24.8925 25.479 25.2425 26.0596 25.6262C26.3575 25.362 26.6773 25.0759 27.061 24.7343C26.2431 24.1958 25.5295 23.7262 24.7369 23.2062C24.5888 23.6791 24.4659 24.0712 24.3347 24.4869ZM34.2772 8.22002C35.2112 8.82923 36.083 9.39636 36.9901 9.98706C37.187 9.66563 37.33 9.43339 37.4966 9.16244C36.5862 8.57006 35.7127 8.00124 34.8141 7.41728C34.6172 7.71178 34.4792 7.9171 34.2772 8.22002ZM24.9489 26.7403C24.9473 26.636 24.9456 26.5316 24.9439 26.4273C24.6325 26.2371 24.3212 26.0453 23.7743 25.7104C23.8029 26.3347 23.8214 26.7336 23.8399 27.1307C24.2101 27.0012 24.5804 26.8716 24.9489 26.7403Z" fill="#F234A6"/>
<path d="M12.8401 14.2718C12.6028 14.0261 12.3672 13.7804 12.1299 13.5347C12.3941 13.2974 12.6314 12.8952 12.9242 12.8514C15.5277 12.4627 18.1395 12.1362 20.7497 11.7929C22.6648 11.5404 24.5833 11.2964 26.4968 11.0322C27.0016 10.9632 27.5166 10.8976 27.6041 11.5573C27.6849 12.1648 27.2036 12.2573 26.7257 12.3196C22.2273 12.9137 17.7306 13.5145 13.2322 14.1136C13.1497 14.1254 13.0639 14.1287 12.9814 14.1355C12.9343 14.1809 12.8872 14.2263 12.8401 14.2718Z" fill="#F234A6"/>
<path d="M15.9102 7.84639C15.7857 7.73195 15.5349 7.50476 15.2842 7.27588C15.5232 7.0285 15.7352 6.60273 16.0028 6.56234C19.2962 6.08271 22.5964 5.65862 25.8948 5.21938C26.3526 5.1588 26.7885 5.21602 26.8625 5.75455C26.9382 6.2998 26.5158 6.46809 26.0699 6.52699C22.7697 6.9595 19.4695 7.38527 15.9102 7.84639Z" fill="#F234A6"/>
<path d="M15.0133 31.5854C14.8837 31.449 14.4865 31.2151 14.4932 30.9913C14.5 30.749 14.8534 30.3501 15.1041 30.3064C16.6726 30.0405 18.2512 29.8267 19.8348 29.6702C20.0889 29.645 20.3817 29.9984 20.656 30.1768C20.4541 30.4309 20.2824 30.8718 20.0434 30.9105C18.4481 31.1764 16.8375 31.3531 15.0133 31.5854Z" fill="#F234A6"/>
<path d="M16.3075 18.2838C16.4455 18.4184 16.703 18.6675 16.9605 18.9182C16.703 19.1589 16.4775 19.5459 16.1813 19.6132C15.3718 19.8 14.5321 19.9094 13.7007 19.9229C13.4214 19.9279 13.1353 19.5527 12.8525 19.3507C13.0814 19.1218 13.28 18.7533 13.5476 18.691C14.3587 18.5059 15.1968 18.4369 16.3075 18.2838Z" fill="#F234A6"/>
</svg>
