<svg width="40" height="40" viewBox="0 0 40 40" fill="none" xmlns="http://www.w3.org/2000/svg">
<path d="M25.475 31.7261C25.9127 32.8305 26.3489 33.9333 26.7866 35.0376C27.0825 35.7853 27.4034 36.5236 27.6728 37.2791C28.2024 38.7619 27.366 39.9566 25.8006 39.9815C23.3582 40.022 23.2118 39.9239 22.299 37.6685C21.5592 35.8414 20.8115 34.0189 20.0794 32.1887C19.9268 31.8087 19.7258 31.5408 19.3162 31.3803C18.6355 31.1155 18.1417 30.6124 17.9081 29.9099C17.7882 29.5486 17.5654 29.3928 17.215 29.2807C15.5483 28.7417 14.6402 27.5252 14.6433 25.8944C14.6464 24.2776 15.5592 23.072 17.2461 22.5315C17.6122 22.4146 17.7788 22.2184 17.919 21.8819C18.3614 20.8259 19.1589 20.2511 20.3302 20.2527C21.9128 20.2527 23.4969 20.2667 25.0794 20.2418C25.4844 20.2355 25.9081 20.1639 26.285 20.0221C29.1495 18.9458 32.003 17.8446 34.8613 16.7527C35.0794 16.6701 35.2974 16.5782 35.5233 16.5284C36.4314 16.3306 37.1432 16.8617 37.1666 17.7885C37.1946 18.9038 37.1962 20.0206 37.1666 21.1358C37.1541 21.6218 37.3161 21.8508 37.7818 22.0486C39.2008 22.6514 39.975 23.7371 39.9781 25.3165C39.9781 25.7059 39.9781 26.0953 39.9781 26.4847C39.9796 28.061 39.2226 29.1623 37.8021 29.7635C37.3021 29.9754 37.1463 30.2277 37.165 30.7417C37.2008 31.7012 37.1074 32.6669 37.1915 33.6202C37.3083 34.9566 36.3426 35.6841 34.9485 35.1249C32.0856 33.9769 29.1915 32.9052 26.3099 31.8056C26.0794 31.7168 25.8411 31.6467 25.6074 31.5688L25.4735 31.7292L25.475 31.7261ZM35.8005 17.9567C35.584 18.0128 35.4579 18.0346 35.341 18.0782C32.6261 19.1109 29.9158 20.1561 27.1962 21.1748C26.732 21.3477 26.5716 21.6047 26.5763 22.0953C26.5981 24.5875 26.6074 27.0797 26.57 29.5704C26.5607 30.1934 26.7554 30.4894 27.3411 30.7059C29.8956 31.6482 32.4314 32.6389 34.9765 33.6093C35.2289 33.7059 35.4906 33.776 35.8005 33.8741V17.9567ZM25.1635 30.2106V21.6094C23.5155 21.6094 21.9346 21.5829 20.3567 21.6203C19.6184 21.6374 19.1371 22.128 19.1262 22.8741C19.095 24.8975 19.095 26.9224 19.1262 28.9458C19.1371 29.6919 19.6168 30.181 20.3582 30.1981C21.9361 30.2355 23.5171 30.209 25.1635 30.209V30.2106ZM21.3333 31.575C22.2897 33.9037 23.1635 36.0563 24.0716 38.1949C24.1526 38.3865 24.4454 38.5641 24.6666 38.603C25.0436 38.67 25.4439 38.6529 25.8286 38.6124C26.3489 38.5563 26.5405 38.2417 26.3442 37.7417C25.5872 35.8133 24.8177 33.8897 24.028 31.9738C23.9579 31.8024 23.7102 31.6046 23.5342 31.5937C22.8691 31.5486 22.1978 31.575 21.3333 31.575ZM37.2242 28.3881C38.3208 28.0346 38.6572 27.343 38.6276 25.5891C38.6074 24.4084 38.1588 23.709 37.2242 23.4427V28.3881ZM17.6822 27.8508V23.9645C16.6573 24.1607 15.9751 25.0003 16.0047 25.952C16.0343 26.9053 16.6869 27.6716 17.6822 27.8523V27.8508Z" fill="#F234A6"/>
<path d="M5.46928 28.6622C5.81818 28.6622 6.09856 28.6622 6.38049 28.6622C8.71537 28.6622 11.0518 28.6622 13.3867 28.6622C13.5938 28.6622 13.8026 28.6622 14.0097 28.6685C14.4287 28.6841 14.7138 28.8725 14.7247 29.3196C14.7356 29.7619 14.4723 29.9753 14.0471 30.0065C13.9178 30.0158 13.787 30.0143 13.6577 30.0143C10.9848 30.0143 8.31194 30.0174 5.63906 30.0143C4.47084 30.0127 4.04872 29.589 4.04872 28.4146C4.04561 19.8243 4.04561 11.2355 4.04872 2.64524C4.05184 0.975463 5.03781 0.00506228 6.72472 0.00350466C13.4973 -0.00116822 20.2714 -0.00116822 27.0439 0.00350466C28.7168 0.00350466 29.695 0.986366 29.6966 2.66393C29.7028 7.36173 29.6997 12.058 29.6966 16.7558C29.6966 16.9364 29.7511 17.1701 29.6623 17.2885C29.4956 17.5097 29.2417 17.8072 29.0237 17.8072C28.8056 17.8072 28.5268 17.5206 28.3866 17.2916C28.2807 17.1187 28.3461 16.8368 28.3461 16.6031C28.3461 14.1374 28.3461 11.6717 28.3461 9.20751C28.3461 8.92402 28.3461 8.64054 28.3461 8.28228H5.46928V28.6622ZM28.343 6.80565C28.343 5.32747 28.3695 3.95364 28.3336 2.58137C28.3118 1.76985 27.8227 1.35864 26.9333 1.35708C20.2387 1.34929 13.544 1.34929 6.84777 1.35708C5.86024 1.35708 5.41788 1.80256 5.40541 2.78231C5.38984 3.95053 5.39763 5.11719 5.40541 6.28541C5.40541 6.45674 5.46305 6.62653 5.4942 6.80565H28.343Z" fill="#F234A6"/>
<path d="M12.2858 34.0643V38.5736C12.577 38.5938 12.8481 38.6265 13.1206 38.6281C15.4306 38.6328 17.7406 38.6296 20.0505 38.6312C20.2577 38.6312 20.468 38.6234 20.672 38.6483C21.063 38.6966 21.3387 38.9443 21.2499 39.3228C21.1923 39.5658 20.9228 39.7901 20.6969 39.9505C20.5739 40.0377 20.3449 39.9832 20.1627 39.9832C16.4259 39.9832 12.6876 39.9848 8.95089 39.9832C8.1051 39.9832 7.79046 39.787 7.80448 39.287C7.8185 38.8103 8.10821 38.6374 8.91506 38.6328C9.53344 38.6296 10.1518 38.6328 10.8372 38.6328V34.1079C10.5412 34.0938 10.2655 34.0689 9.98827 34.0689C7.57395 34.0658 5.16119 34.072 2.74687 34.0643C0.98987 34.0565 0.00389406 33.0705 0.00233644 31.3088C-0.000778812 24.069 -0.000778812 16.8276 0.00233644 9.58617C0.00233644 8.24194 0.630059 7.3136 1.7718 6.96469C2.01479 6.88992 2.28114 6.86812 2.53659 6.86968C2.926 6.87123 3.23129 7.09086 3.18145 7.47871C3.14874 7.72948 2.92756 8.0706 2.70482 8.16095C1.42756 8.68431 1.3528 8.7544 1.3528 10.1391C1.3528 17.016 1.3528 23.8945 1.3528 30.7714C1.3528 32.3509 1.70482 32.7091 3.25777 32.7091C8.08485 32.7091 12.9119 32.7091 17.739 32.7091C17.9976 32.7091 18.2966 32.6421 18.5069 32.7465C18.7437 32.8664 19.0085 33.1188 19.0677 33.3602C19.1611 33.7356 18.8901 33.9895 18.4991 34.0409C18.2951 34.0689 18.0848 34.0596 17.8776 34.0596C16.32 34.0596 14.7639 34.0596 13.2063 34.0596C12.9275 34.0596 12.6487 34.0596 12.2858 34.0596V34.0643Z" fill="#F234A6"/>
<path d="M12.4613 16.1748C12.4613 15.1125 12.5236 14.044 12.4458 12.9864C12.3398 11.5565 14.1903 10.6406 15.2651 11.3353C16.9598 12.4318 18.7697 13.3477 20.5127 14.3711C21.9566 15.22 21.9675 16.9817 20.5423 17.8103C18.7728 18.8399 16.9894 19.8446 15.2105 20.8586C15.0532 20.9489 14.8943 21.0377 14.7277 21.1078C13.6296 21.5704 12.505 20.8726 12.4707 19.6732C12.438 18.5081 12.4629 17.3399 12.4629 16.1733H12.4598L12.4613 16.1748ZM13.8134 16.1826C13.8134 17.1437 13.8071 18.1032 13.8149 19.0642C13.8227 19.8586 13.9769 19.9474 14.6778 19.5486C16.3476 18.6016 18.0143 17.6483 19.6778 16.6904C20.3538 16.2994 20.3616 15.9147 19.6654 15.5066C18.0532 14.5627 16.4302 13.639 14.8009 12.7247C14.1514 12.3602 13.8305 12.5533 13.818 13.301C13.8009 14.2605 13.8134 15.2216 13.8134 16.1826Z" fill="#F234A6"/>
<path d="M33.7518 12.2794C33.7518 13.2373 33.7533 14.1937 33.7518 15.1516C33.7486 15.9912 33.5524 16.3074 33.0539 16.2918C32.5789 16.2778 32.4029 15.9865 32.4013 15.1843C32.3982 13.4258 32.4029 11.6657 32.3982 9.9071C32.3951 8.79185 32.2066 8.53172 31.1194 8.20618C30.7035 8.08157 30.4963 7.84014 30.5586 7.41646C30.6163 7.01771 30.9029 6.88064 31.2814 6.86039C32.5228 6.7903 33.7019 7.91023 33.7409 9.2529C33.7704 10.2607 33.7471 11.27 33.7471 12.2794H33.7518Z" fill="#F234A6"/>
<path d="M12.7441 4.78096C11.2644 4.78096 9.78618 4.78252 8.30644 4.77941C8.07435 4.77941 7.78931 4.82614 7.6242 4.71243C7.42327 4.5738 7.22078 4.29343 7.20987 4.06446C7.20053 3.87754 7.4295 3.60963 7.62264 3.49748C7.80333 3.39312 8.07591 3.43206 8.308 3.4305C11.3189 3.42739 14.3282 3.42895 17.3391 3.42895C17.3656 3.42895 17.3905 3.42895 17.417 3.42895C18.1787 3.43985 18.4949 3.6548 18.4684 4.1439C18.4435 4.60028 18.1631 4.77785 17.417 4.77941C15.8594 4.78408 14.3033 4.77941 12.7457 4.77941L12.7441 4.78096Z" fill="#F234A6"/>
<path d="M21.5332 5.0816C20.9802 5.07537 20.5628 4.64546 20.569 4.09095C20.5753 3.53799 21.0036 3.12055 21.5597 3.12678C22.1126 3.13301 22.5301 3.56136 22.5239 4.11743C22.5176 4.67038 22.0877 5.08938 21.5332 5.0816Z" fill="#F234A6"/>
<path d="M26.577 4.11743C26.5707 4.67038 26.1408 5.08938 25.5863 5.0816C25.0334 5.07381 24.6159 4.64546 24.6221 4.09095C24.6284 3.53799 25.0583 3.12055 25.6128 3.12678C26.1657 3.13301 26.5832 3.56136 26.577 4.11743Z" fill="#F234A6"/>
</svg>
