<svg width="37" height="40" viewBox="0 0 37 40" fill="none" xmlns="http://www.w3.org/2000/svg">
<path d="M20.7863 31.7017C21.1081 33.0543 21.4032 34.2882 21.7125 35.5892C22.1811 35.5892 22.6168 35.5892 23.0542 35.5892C25.1783 35.5908 25.9108 36.2499 26.1154 38.4303C26.8277 38.4303 27.5493 38.4412 28.2693 38.4272C28.8394 38.4163 29.297 38.6084 29.2876 39.2269C29.2767 39.8469 28.8034 40 28.2412 40C21.4751 39.9938 14.7075 39.9938 7.94139 40C7.37443 40 6.91055 39.8282 6.91367 39.2081C6.91679 38.5881 7.38536 38.4147 7.95076 38.4256C8.64892 38.4412 9.34864 38.4287 10.1062 38.4287C10.0937 37.3089 10.3576 36.253 11.4259 35.8844C12.3537 35.5643 13.4033 35.5924 14.5153 35.4534C14.7902 34.3069 15.0901 33.0543 15.415 31.7002C15.0558 31.7002 14.7777 31.7002 14.4997 31.7002C10.8559 31.7002 7.21199 31.7033 3.56968 31.6986C1.2784 31.6955 0.0039047 30.4132 0.00234282 28.1094C-0.000780941 21.6807 -0.000780941 15.2535 0.00234282 8.82484C0.0039047 6.47108 1.26747 5.19815 3.60873 5.19659C10.2186 5.19346 16.8301 5.18253 23.4399 5.21377C24.1334 5.21689 24.527 5.00135 24.8722 4.42502C25.4329 3.48945 26.0686 2.59762 26.684 1.69641C27.782 0.0892334 29.5719 -0.432435 31.1744 0.375058C32.8003 1.19505 33.4282 2.96934 32.755 4.83892C32.7222 4.92951 32.6988 5.02166 32.6613 5.14817C32.9315 5.17784 33.1627 5.19346 33.3907 5.22783C35.0369 5.47616 36.1818 6.7038 36.188 8.37502C36.2099 15.0895 36.213 21.8041 36.1865 28.5186C36.1786 30.396 34.7808 31.6892 32.8472 31.6955C29.1517 31.7095 25.4563 31.7002 21.7609 31.7002C21.4767 31.7017 21.1924 31.7017 20.7863 31.7017ZM34.5918 23.3004C34.6074 23.0083 34.6293 22.8068 34.6293 22.6038C34.6308 17.9712 34.6261 13.3402 34.634 8.7077C34.6355 7.88615 34.4106 7.20985 33.5859 6.88654C32.6457 6.51794 31.3228 6.76472 30.8136 7.38478C28.7347 9.91972 26.6637 12.4609 24.5707 14.9833C24.2755 15.3394 24.2146 15.6456 24.3005 16.1048C24.7972 18.8068 23.0854 20.8326 20.3443 20.8357C19.8242 20.8357 19.3041 20.8045 18.784 20.7935C17.8453 20.7748 16.9956 20.9997 16.249 21.6166C15.6305 22.1274 15.0339 21.9259 14.8574 21.1356C14.6481 20.2 14.4482 19.2473 14.3888 18.293C14.153 14.4992 16.2334 12.3656 19.3384 12.1735C19.5602 12.1595 19.8257 11.9127 19.9694 11.7049C20.9722 10.2477 21.9483 8.7733 22.9276 7.302C23.0198 7.163 23.0745 6.999 23.1838 6.76472C22.862 6.76472 22.6325 6.76472 22.4044 6.76472C16.1584 6.76472 9.91405 6.76315 3.66808 6.76472C2.11088 6.76472 1.57047 7.31294 1.56891 8.88575C1.56735 13.3871 1.56891 17.89 1.56891 22.3913C1.56891 22.6694 1.56891 22.9474 1.56891 23.3004C2.28113 23.3004 2.9012 23.3035 3.5197 23.2988C4.06792 23.2957 4.54742 23.4331 4.55679 24.0797C4.56616 24.7295 4.10384 24.8794 3.54313 24.8685C2.90432 24.856 2.26551 24.8654 1.66731 24.8654C1.61264 25.034 1.58297 25.0825 1.58297 25.1309C1.57672 26.068 1.57047 27.0036 1.57047 27.9407C1.57047 29.615 2.08589 30.1336 3.75555 30.1336C13.3314 30.1336 22.9073 30.1336 32.4832 30.1336C32.7175 30.1336 32.9549 30.1492 33.1845 30.1133C33.8546 30.0071 34.4653 29.6666 34.5121 28.9825C34.6058 27.6283 34.5402 26.2632 34.5402 24.8654C30.6121 24.8654 26.7371 24.8654 22.8605 24.8654C18.6965 24.8654 14.5341 24.8622 10.3701 24.8685C9.82502 24.8701 9.32834 24.7779 9.30803 24.1266C9.28773 23.4316 9.79534 23.2879 10.3748 23.2988C10.5825 23.3019 10.7918 23.2988 10.9996 23.2988C18.5466 23.2988 26.092 23.2988 33.639 23.2988C33.942 23.3004 34.2466 23.3004 34.5918 23.3004ZM25.8343 10.9943C27.6305 8.79829 29.411 6.66632 31.1353 4.49062C31.7804 3.67688 31.5399 2.53358 30.723 1.93538C29.9061 1.33718 28.7894 1.47775 28.1631 2.3321C27.4727 3.27391 26.8511 4.26571 26.1998 5.23563C25.3064 6.56792 24.4161 7.90177 23.5024 9.26841C24.3068 9.86193 25.0518 10.4133 25.8343 10.9943ZM16.1053 19.4722C17.5673 19.3988 18.9261 19.3301 20.2849 19.2629C20.5442 19.2504 20.8082 19.2613 21.0628 19.2192C21.9546 19.0708 22.4919 18.5069 22.7387 17.6713C23.0229 16.7139 22.7683 15.958 22.0311 15.4097C21.4064 14.9443 20.7863 14.4695 20.1475 14.0212C19.9663 13.8947 19.7367 13.7807 19.5227 13.7666C18.0671 13.6682 16.6832 14.61 16.2084 16.0032C15.8039 17.1981 15.8929 18.4054 16.1053 19.4722ZM11.7321 38.3788C16.0132 38.3788 20.2412 38.3788 24.4677 38.3788C24.4864 37.3729 24.2974 37.1605 23.3712 37.1589C19.857 37.1543 16.3428 37.1543 12.8285 37.1589C11.9023 37.1605 11.7118 37.3729 11.7321 38.3788ZM17.0222 31.733C16.7254 32.9981 16.4349 34.2445 16.1319 35.5377C17.4954 35.5377 18.7293 35.5377 20.0741 35.5377C19.7617 34.2179 19.4665 32.9715 19.1744 31.733C18.4169 31.733 17.7453 31.733 17.0222 31.733ZM21.1424 12.7905C21.8375 13.3074 22.4747 13.7807 23.1401 14.2758C23.7211 13.5636 24.2552 12.9076 24.8269 12.2063C24.0756 11.6472 23.379 11.1286 22.6309 10.5726C22.1264 11.3254 21.6672 12.0095 21.1424 12.7905Z" fill="#10982E"/>
<path d="M7.05889 23.1973C7.26974 23.4737 7.59774 23.7252 7.6649 24.0329C7.76642 24.4983 7.4478 24.8997 6.96674 24.8232C6.67467 24.7763 6.2514 24.4093 6.22641 24.1531C6.19673 23.8564 6.54191 23.5237 6.72465 23.2082C6.83554 23.2035 6.948 23.2004 7.05889 23.1973Z" fill="#10982E"/>
</svg>
